<svg width="90" height="90" viewBox="0 0 90 90" fill="none" xmlns="http://www.w3.org/2000/svg">
<g clip-path="url(#clip0)">
<g clip-path="url(#clip1)">
<path d="M0 44.8007C0 63.1456 11.0313 78.9054 26.8167 85.8343C26.6907 82.706 26.7943 78.9506 27.5965 75.5468C28.4578 71.91 33.361 51.135 33.361 51.135C33.361 51.135 31.9298 48.2744 31.9298 44.0468C31.9298 37.4076 35.7777 32.4492 40.5699 32.4492C44.645 32.4492 46.6137 35.5099 46.6137 39.1751C46.6137 43.2715 44.001 49.399 42.6573 55.0742C41.5349 59.8265 45.0401 63.7028 49.7284 63.7028C58.2166 63.7028 63.9335 52.8006 63.9335 39.8836C63.9335 30.0647 57.3202 22.7153 45.2918 22.7153C31.702 22.7153 23.2358 32.8499 23.2358 44.1703C23.2358 48.0735 24.3866 50.826 26.1891 52.9575C27.0179 53.9364 27.1331 54.3301 26.8331 55.4543C26.6182 56.2786 26.1247 58.2631 25.9203 59.0495C25.6221 60.1842 24.7027 60.5899 23.6772 60.171C17.4178 57.6156 14.5026 50.7608 14.5026 43.0552C14.5026 30.3289 25.2357 15.0689 46.5213 15.0689C63.6258 15.0689 74.8836 27.4463 74.8836 40.7326C74.8836 58.3072 65.113 71.4367 50.7105 71.4367C45.8738 71.4367 41.3242 68.8222 39.7656 65.8525C39.7656 65.8525 37.1648 76.1747 36.6139 78.168C35.664 81.6221 33.8048 85.0745 32.1048 87.7653C36.134 88.9546 40.3904 89.6024 44.8018 89.6024C69.5412 89.6024 89.6004 69.5443 89.6004 44.8007C89.6004 20.0581 69.5412 0 44.8018 0C20.0599 0 0 20.0581 0 44.8007Z" fill="#CB1F27"/>
</g>
</g>
<defs>
<clipPath id="clip0">
<rect width="89.6" height="89.6" fill="white"/>
</clipPath>
<clipPath id="clip1">
<rect width="89.6" height="89.6" fill="white"/>
</clipPath>
</defs>
</svg>
