<svg width="128" height="128" viewBox="0 0 128 128" fill="none" xmlns="http://www.w3.org/2000/svg">
<rect width="128" height="128" fill="white"/>
<g clip-path="url(#clip0)">
<g clip-path="url(#clip1)">
<path d="M19.2 64.0007C19.2 82.3456 30.2313 98.1054 46.0167 105.034C45.8907 101.906 45.9943 98.1505 46.7965 94.7468C47.6578 91.1099 52.561 70.335 52.561 70.335C52.561 70.335 51.1298 67.4744 51.1298 63.2468C51.1298 56.6076 54.9777 51.6492 59.7699 51.6492C63.845 51.6492 65.8137 54.7099 65.8137 58.3751C65.8137 62.4715 63.201 68.599 61.8573 74.2742C60.7349 79.0265 64.2401 82.9028 68.9284 82.9028C77.4166 82.9028 83.1335 72.0006 83.1335 59.0835C83.1335 49.2646 76.5202 41.9153 64.4918 41.9153C50.902 41.9153 42.4358 52.0499 42.4358 63.3703C42.4358 67.2735 43.5866 70.0259 45.3891 72.1574C46.2179 73.1364 46.3331 73.5301 46.0331 74.6543C45.8182 75.4786 45.3247 77.4631 45.1203 78.2495C44.8221 79.3842 43.9027 79.7899 42.8772 79.3709C36.6178 76.8156 33.7026 69.9608 33.7026 62.2552C33.7026 49.5289 44.4357 34.2689 65.7213 34.2689C82.8258 34.2689 94.0836 46.6463 94.0836 59.9326C94.0836 77.5072 84.313 90.6367 69.9105 90.6367C65.0738 90.6367 60.5242 88.0222 58.9656 85.0525C58.9656 85.0525 56.3648 95.3747 55.8139 97.3679C54.864 100.822 53.0048 104.274 51.3048 106.965C55.334 108.155 59.5904 108.802 64.0018 108.802C88.7412 108.802 108.8 88.7443 108.8 64.0007C108.8 39.2581 88.7412 19.2 64.0018 19.2C39.2599 19.2 19.2 39.2581 19.2 64.0007Z" fill="#CB1F27"/>
</g>
</g>
<defs>
<clipPath id="clip0">
<rect width="89.6" height="89.6" fill="white" transform="translate(19.2 19.2)"/>
</clipPath>
<clipPath id="clip1">
<rect width="89.6" height="89.6" fill="white" transform="translate(19.2 19.2)"/>
</clipPath>
</defs>
</svg>
